<?xml version="1.0" encoding="UTF-8" standalone="no"?>
<!-- Created with Inkscape (http://www.inkscape.org/) -->

<svg
   width="69.236984mm"
   height="69.236992mm"
   viewBox="0 0 69.236984 69.236992"
   version="1.1"
   id="svg1"
   xml:space="preserve"
   xmlns="http://www.w3.org/2000/svg"
   xmlns:svg="http://www.w3.org/2000/svg"><defs
     id="defs1" /><g
     id="layer1"
     transform="translate(-48.279122,-34.675013)"><g
       id="g27"><path
         id="path1"
         style="stroke-width:0.264583"
         d="M 117.51612,69.29351 A 34.618496,34.618496 0 0 1 82.897621,103.91201 34.618496,34.618496 0 0 1 48.279125,69.29351 34.618496,34.618496 0 0 1 82.897621,34.675014 34.618496,34.618496 0 0 1 117.51612,69.29351 Z" /><g
         id="g9"
         transform="matrix(1.1825426,0,0,1.1825426,-15.132348,-9.4740163)"><path
           d="m 77.239762,50.323488 h 8.097006 V 50.95687 H 84.89169 q -0.445079,0 -1.300999,0.393723 -0.855921,0.393723 -1.557775,1.129815 -0.701855,0.736091 -1.728959,2.396577 l -5.59772,8.81598 v 5.820258 q 0,2.139801 0.479316,2.670472 0.650499,0.718973 2.054209,0.718973 h 0.75321 v 0.633381 h -9.860203 v -0.633381 h 0.821683 q 1.472184,0 2.088446,-0.890157 0.376605,-0.547789 0.376605,-2.499288 V 64.018214 L 65.051456,54.294959 Q 63.921641,52.583118 63.510799,52.155158 63.117076,51.727198 61.850313,51.128054 61.507945,50.95687 60.857446,50.95687 v -0.633382 h 9.928676 V 50.95687 H 70.27257 q -0.804565,0 -1.489302,0.376604 -0.667617,0.376605 -0.667617,1.129815 0,0.616263 1.044222,2.225393 l 4.84451,7.480744 4.553496,-7.155494 q 1.027104,-1.60913 1.027104,-2.396577 0,-0.479315 -0.256776,-0.85592 Q 79.08855,51.38483 78.626353,51.179409 78.164156,50.95687 77.239762,50.95687 Z"
           id="text7"
           style="font-size:35.0585px;font-family:Serif;-inkscape-font-specification:'Serif, Normal';fill:#ffffff;stroke-width:0.939065"
           aria-label="Y" /><path
           d="m 96.83952,85.789917 h -6.196864 l -7.857349,-10.85307 q -0.873038,0.03424 -1.420827,0.03424 -0.22254,0 -0.479316,0 -0.256776,-0.01712 -0.53067,-0.03424 v 6.744652 q 0,2.191156 0.479315,2.721827 0.650499,0.75321 1.951498,0.75321 h 0.907276 v 0.633381 h -9.945795 v -0.633381 h 0.873039 q 1.472183,0 2.105564,-0.958631 0.359487,-0.530671 0.359487,-2.516406 V 66.685774 q 0,-2.191156 -0.479316,-2.721826 -0.667618,-0.75321 -1.985735,-0.75321 h -0.873039 v -0.633381 h 8.456494 q 3.697576,0 5.443653,0.547789 1.763196,0.53067 2.978603,1.985735 1.232525,1.437946 1.232525,3.4408 0,2.139801 -1.403709,3.714694 -1.386591,1.574894 -4.313839,2.225393 l 4.793154,6.659061 q 1.643367,2.293866 2.824538,3.047076 1.18117,0.75321 3.081313,0.958631 z M 80.354494,73.858387 q 0.325249,0 0.564907,0.01712 0.239658,0 0.393723,0 3.320971,0 4.998575,-1.437946 1.694723,-1.437946 1.694723,-3.663339 0,-2.174038 -1.369473,-3.526392 -1.352354,-1.369472 -3.594865,-1.369472 -0.992868,0 -2.68759,0.325249 z"
           id="text8"
           style="font-size:35.0585px;font-family:Serif;-inkscape-font-specification:'Serif, Normal';fill:#ffffff;stroke-width:0.939065"
           aria-label="R" /><path
           d="m 106.17032,49.784258 v 8.028533 h -0.63338 q -0.30813,-2.310985 -1.11269,-3.680458 -0.78745,-1.369472 -2.25963,-2.174038 -1.47219,-0.804565 -3.047081,-0.804565 -1.780315,0 -2.944366,1.095578 -1.164052,1.07846 -1.164052,2.465051 0,1.061341 0.736091,1.93438 1.061342,1.283881 5.049928,3.423681 3.2525,1.746078 4.43367,2.68759 1.19829,0.924394 1.83167,2.191157 0.6505,1.266762 0.6505,2.653353 0,2.636234 -2.05421,4.553496 -2.03709,1.900143 -5.25535,1.900143 -1.009987,0 -1.900144,-0.154065 -0.530671,-0.08559 -2.208275,-0.616263 -1.660485,-0.547789 -2.105564,-0.547789 -0.42796,0 -0.684736,0.256776 -0.239658,0.256776 -0.359486,1.061341 H 92.509833 V 66.0981 h 0.633382 q 0.445078,2.499287 1.198288,3.748931 0.75321,1.232525 2.293867,2.054209 1.557775,0.821684 3.40656,0.821684 2.1398,0 3.37233,-1.129815 1.24964,-1.129815 1.24964,-2.670472 0,-0.85592 -0.47931,-1.728959 -0.4622,-0.873039 -1.45507,-1.626249 -0.66762,-0.513552 -3.646218,-2.174037 -2.978603,-1.677604 -4.245365,-2.670472 -1.249644,-0.992868 -1.900143,-2.191156 -0.6505,-1.198289 -0.6505,-2.636235 0,-2.499287 1.917262,-4.29672 1.917261,-1.814551 4.878746,-1.814551 1.848788,0 3.920118,0.907275 0.95863,0.42796 1.35235,0.42796 0.44508,0 0.71897,-0.256776 0.29102,-0.273894 0.4622,-1.078459 z"
           id="text9"
           style="font-size:35.0585px;font-family:Serif;-inkscape-font-specification:'Serif, Normal';fill:#ffffff;stroke-width:0.939065"
           aria-label="S" /></g></g></g></svg>
